<svg width="79" height="48" viewBox="0 0 79 48" fill="none" xmlns="http://www.w3.org/2000/svg">
<path d="M51.196 5.1875H46.0527V30.2585H51.196V5.1875Z" fill="#FFFFFF"/>
<path fill-rule="evenodd" clip-rule="evenodd" d="M0 0.565604L3.88451 25.2716C4.39363 28.5168 7.17177 30.9036 10.4389 30.9036C13.7021 30.9036 16.4802 28.5168 16.9893 25.2716L19.6311 8.51613C19.7393 7.81815 20.3367 7.3047 21.0422 7.3047C21.7438 7.3047 22.3411 7.81815 22.4533 8.51613L25.0951 25.2676C25.6082 28.5168 28.3863 30.9076 31.6495 30.9076C34.9127 30.9076 37.6868 28.5208 38.2039 25.2796L41.1223 6.97978C41.2787 5.98095 42.1366 5.24687 43.1428 5.24687H46.0612V0H43.1428C39.5789 0 36.5443 2.60338 35.979 6.14942L33.0606 24.4493C32.9484 25.1472 32.351 25.6607 31.6495 25.6607C30.948 25.6607 30.3466 25.1472 30.2384 24.4453L27.5966 7.6938C27.0835 4.44861 24.3054 2.06184 21.0422 2.06184C17.779 2.06184 15.001 4.45262 14.4878 7.6938L11.846 24.4493C11.7378 25.1472 11.1405 25.6607 10.4349 25.6607C9.73339 25.6607 9.13607 25.1472 9.02383 24.4493L5.27159 0.561589L0 0.565604Z" fill="#FFFFFF"/>
<path d="M67.0557 30.9078C63.2754 30.9078 60.1966 29.4838 58.1481 26.8002C56.4123 24.5217 55.4902 21.4169 55.4902 17.8348C55.4902 14.2486 56.4083 11.1518 58.1481 8.86936C60.1966 6.17773 63.2834 4.76172 67.0557 4.76172C70.836 4.76172 73.9147 6.18576 75.9632 8.86936C77.699 11.1478 78.6211 14.2526 78.6211 17.8348C78.6211 21.4209 77.703 24.5177 75.9632 26.8002C73.9147 29.4918 70.828 30.9078 67.0557 30.9078ZM67.0557 9.29858C64.7346 9.29858 62.9627 10.2292 61.8121 11.7495C60.7057 13.1936 60.1244 15.2996 60.1244 17.8388C60.1244 20.3699 60.7097 22.4759 61.8121 23.928C62.9707 25.4403 64.7346 26.379 67.0557 26.379C69.3768 26.379 71.1406 25.4483 72.2992 23.928C73.4056 22.4839 73.9869 20.378 73.9869 17.8388C73.9869 15.3076 73.4016 13.2016 72.2992 11.7495C71.1406 10.2292 69.3768 9.29858 67.0557 9.29858Z" fill="#FFFFFF"/>
<path d="M3.14258 35.0078H7.35584C8.25782 35.0078 8.99545 35.092 9.57673 35.2645C10.158 35.437 10.619 35.6697 10.9557 35.9585C11.2925 36.2513 11.529 36.5923 11.6573 36.9894C11.7856 37.3866 11.8537 37.8118 11.8537 38.261C11.8537 38.8427 11.7214 39.3641 11.4528 39.8255C11.1842 40.2868 10.7192 40.6759 10.0578 40.9807C10.4827 41.1452 10.8355 41.3377 11.1161 41.5584C11.3967 41.779 11.6212 42.0197 11.7936 42.2884C11.9659 42.5532 12.0822 42.834 12.1504 43.1228C12.2145 43.4156 12.2466 43.7125 12.2466 44.0213C12.2466 44.5428 12.1664 45.0282 12.006 45.4694C11.8457 45.9147 11.5892 46.3038 11.2324 46.6327C10.8756 46.9657 10.4066 47.2264 9.82929 47.415C9.24801 47.6035 8.53044 47.6998 7.67656 47.6998H3.14258V35.0078ZM7.56831 40.379C8.52642 40.379 9.21594 40.2025 9.62885 39.8535C10.0458 39.5045 10.2502 38.9911 10.2502 38.3172C10.2502 37.6312 10.0297 37.1298 9.58476 36.8209C9.13978 36.5121 8.37808 36.3596 7.29971 36.3596H4.73807V40.379H7.56831ZM7.62444 46.356C8.20572 46.356 8.68677 46.3038 9.07162 46.1955C9.45646 46.0872 9.76511 45.9388 9.99763 45.7422C10.2301 45.5457 10.3905 45.309 10.4787 45.0322C10.5669 44.7514 10.611 44.4345 10.611 44.0815C10.611 43.3354 10.3905 42.7618 9.95353 42.3647C9.51657 41.9675 8.77895 41.767 7.74869 41.767H4.7461V46.356H7.62444Z" fill="#FFFFFF"/>
<path d="M14.1104 38.5156H15.6577V44.3161C15.6577 45.1705 15.7981 45.7762 16.0747 46.1292C16.3513 46.4862 16.8043 46.6627 17.4337 46.6627C18.1192 46.6627 18.7446 46.414 19.3018 45.9166C19.5984 45.6559 19.8229 45.3791 19.9752 45.0903C20.1276 44.8014 20.2078 44.4244 20.2078 43.9631V38.5196H21.7552V47.7177H20.2278V46.2937C19.7788 46.8874 19.2897 47.3206 18.7686 47.5933C18.2474 47.8661 17.6822 48.0025 17.0809 48.0025C16.0386 48.0025 15.2809 47.7217 14.8159 47.1561C14.3469 46.5945 14.1144 45.7481 14.1144 44.6209V38.5156H14.1104Z" fill="#FFFFFF"/>
<path d="M25.1346 45.0257C25.2428 45.6675 25.5114 46.1128 25.9444 46.3695C26.3773 46.6263 26.9667 46.7506 27.7123 46.7506C28.494 46.7506 29.0472 46.6182 29.376 46.3495C29.7047 46.0807 29.865 45.7317 29.865 45.2905C29.865 45.114 29.845 44.9415 29.8049 44.785C29.7648 44.6246 29.6846 44.4842 29.5644 44.3598C29.4441 44.2355 29.2797 44.1272 29.0673 44.0309C28.8548 43.9346 28.5742 43.8584 28.2334 43.7982L27.0589 43.6217C26.5377 43.5375 26.0807 43.4332 25.6918 43.3008C25.299 43.1725 24.9703 43 24.6977 42.7954C24.4251 42.5868 24.2206 42.3341 24.0843 42.0292C23.948 41.7244 23.8798 41.3633 23.8798 40.9341C23.8798 40.5089 23.9721 40.1278 24.1565 39.7949C24.3409 39.462 24.5934 39.1812 24.9221 38.9525C25.2468 38.7199 25.6317 38.5434 26.0767 38.419C26.5216 38.2947 27.0027 38.2305 27.5239 38.2305C28.1893 38.2305 28.7425 38.2946 29.1875 38.427C29.6325 38.5594 29.9973 38.7359 30.2819 38.9605C30.5666 39.1852 30.787 39.4539 30.9393 39.7588C31.0917 40.0677 31.212 40.3926 31.2961 40.7376L29.8931 40.9702C29.8089 40.7215 29.7167 40.5009 29.6084 40.3124C29.5002 40.1238 29.3599 39.9674 29.1835 39.843C29.0071 39.7187 28.7906 39.6224 28.5341 39.5582C28.2775 39.494 27.9608 39.462 27.584 39.462C27.159 39.462 26.8023 39.5021 26.5177 39.5783C26.233 39.6545 26.0045 39.7588 25.8321 39.8912C25.6598 40.0195 25.5395 40.168 25.4674 40.3284C25.3952 40.4889 25.3591 40.6573 25.3591 40.8338C25.3591 41.0224 25.3831 41.1909 25.4313 41.3393C25.4794 41.4877 25.5676 41.6201 25.6999 41.7284C25.8281 41.8407 26.0085 41.941 26.233 42.0212C26.4575 42.1054 26.7502 42.1776 27.1029 42.2338L28.4379 42.4464C29.5162 42.6229 30.2899 42.9318 30.759 43.373C31.228 43.8103 31.4605 44.4521 31.4605 45.2945C31.4605 45.6836 31.3844 46.0446 31.228 46.3695C31.0757 46.6945 30.8431 46.9793 30.5345 47.2239C30.2258 47.4686 29.841 47.6572 29.38 47.7936C28.919 47.93 28.3777 47.9981 27.7604 47.9981C27.2032 47.9981 26.686 47.946 26.205 47.8377C25.7239 47.7294 25.303 47.5609 24.9342 47.3323C24.5654 47.0996 24.2687 46.7947 24.0442 46.4177C23.8197 46.0366 23.6874 45.5753 23.6514 45.0297H25.1346V45.0257Z" fill="#FFFFFF"/>
<path d="M33.4014 35.0078H35.053V36.8049H33.4014V35.0078ZM33.4535 38.5137H35.0009V47.7118H33.4535V38.5137Z" fill="#FFFFFF"/>
<path d="M37.418 38.5154H38.9453V39.9194C39.3943 39.3136 39.8914 38.8804 40.4406 38.6197C40.9858 38.3589 41.5591 38.2266 42.1644 38.2266C43.2067 38.2266 43.9804 38.5114 44.4855 39.081C44.9906 39.6506 45.2432 40.485 45.2432 41.5881V47.7054H43.6958V41.8889C43.6958 41.0345 43.5434 40.4328 43.2348 40.0838C42.9261 39.7348 42.453 39.5583 41.8116 39.5583C41.4669 39.5583 41.1261 39.6185 40.7894 39.7348C40.4527 39.8552 40.148 40.0437 39.8754 40.3044C39.5787 40.5652 39.3542 40.842 39.1979 41.1308C39.0456 41.4196 38.9654 41.7967 38.9654 42.258V47.7014H37.418V38.5154Z" fill="#FFFFFF"/>
<path d="M55.4972 45.1301C55.3448 46.0206 54.948 46.7186 54.3146 47.2281C53.6812 47.7375 52.7712 47.9942 51.5846 47.9942C50.1855 47.9942 49.1152 47.569 48.3655 46.7226C47.6199 45.8762 47.2471 44.6929 47.2471 43.1726C47.2471 42.3783 47.3553 41.6723 47.5678 41.0546C47.7803 40.4368 48.0809 39.9234 48.4658 39.5062C48.8506 39.089 49.3116 38.7721 49.8448 38.5555C50.3779 38.3349 50.9592 38.2266 51.5886 38.2266C52.2981 38.2266 52.9115 38.3389 53.4206 38.5635C53.9298 38.7882 54.3467 39.101 54.6754 39.4982C55.0001 39.8953 55.2446 40.3686 55.405 40.9142C55.5653 41.4597 55.6455 42.0574 55.6455 42.7113V43.4935H48.8185C48.8185 43.9548 48.8827 44.388 49.0069 44.7851C49.1312 45.1823 49.3076 45.5273 49.5401 45.8161C49.7726 46.1089 50.0572 46.3335 50.402 46.502C50.7468 46.6705 51.1436 46.7507 51.5926 46.7507C52.3623 46.7507 52.9276 46.6063 53.2803 46.3135C53.6371 46.0247 53.8776 45.6275 54.0099 45.1301H55.4972ZM54.0901 42.3382C54.0901 41.901 54.042 41.4998 53.9458 41.1468C53.8496 40.7898 53.7012 40.485 53.5008 40.2322C53.3004 39.9795 53.0398 39.779 52.7191 39.6346C52.3984 39.4901 52.0135 39.422 51.5646 39.422C50.7468 39.422 50.1094 39.6707 49.6524 40.1681C49.1953 40.6655 48.9268 41.3915 48.8426 42.3382H54.0901Z" fill="#FFFFFF"/>
<path d="M58.6806 45.0257C58.7888 45.6675 59.0574 46.1128 59.4903 46.3695C59.9233 46.6263 60.5125 46.7506 61.2582 46.7506C62.0399 46.7506 62.5931 46.6182 62.9219 46.3495C63.2506 46.0807 63.4109 45.7317 63.4109 45.2905C63.4109 45.114 63.3909 44.9415 63.3508 44.785C63.3107 44.6246 63.2305 44.4842 63.1103 44.3598C62.99 44.2355 62.8256 44.1272 62.6132 44.0309C62.4007 43.9346 62.1201 43.8584 61.7794 43.7982L60.6047 43.6217C60.0836 43.5375 59.6266 43.4332 59.2378 43.3008C58.8449 43.1725 58.5162 43 58.2436 42.7954C57.971 42.5868 57.7665 42.3341 57.6302 42.0292C57.4939 41.7244 57.4258 41.3633 57.4258 40.9341C57.4258 40.5089 57.518 40.1278 57.7024 39.7949C57.8868 39.462 58.1394 39.1812 58.4681 38.9525C58.7928 38.7199 59.1776 38.5434 59.6226 38.419C60.0676 38.2947 60.5486 38.2305 61.0698 38.2305C61.7352 38.2305 62.2885 38.2946 62.7334 38.427C63.1784 38.5594 63.5432 38.7359 63.8278 38.9605C64.1125 39.1852 64.333 39.4539 64.4853 39.7588C64.6376 40.0677 64.7579 40.3926 64.8421 40.7376L63.439 40.9702C63.3548 40.7215 63.2626 40.5009 63.1544 40.3124C63.0462 40.1238 62.9058 39.9674 62.7294 39.843C62.553 39.7187 62.3366 39.6224 62.08 39.5582C61.8234 39.494 61.5068 39.462 61.1299 39.462C60.705 39.462 60.3482 39.5021 60.0636 39.5783C59.7789 39.6545 59.5505 39.7588 59.3781 39.8912C59.2057 40.0195 59.0854 40.168 59.0133 40.3284C58.9411 40.4889 58.905 40.6573 58.905 40.8338C58.905 41.0224 58.9291 41.1909 58.9772 41.3393C59.0253 41.4877 59.1135 41.6201 59.2458 41.7284C59.3741 41.8407 59.5545 41.941 59.779 42.0212C60.0035 42.1054 60.2961 42.1776 60.6489 42.2338L61.9838 42.4464C63.0622 42.6229 63.8359 42.9318 64.3049 43.373C64.7739 43.8103 65.0065 44.4521 65.0065 45.2945C65.0065 45.6836 64.9303 46.0446 64.7739 46.3695C64.6216 46.6945 64.3891 46.9793 64.0804 47.2239C63.7717 47.4686 63.3869 47.6572 62.9259 47.7936C62.4649 47.93 61.9236 47.9981 61.3063 47.9981C60.7491 47.9981 60.2319 47.946 59.7509 47.8377C59.2698 47.7294 58.8489 47.5609 58.4801 47.3323C58.1113 47.0996 57.8147 46.7947 57.5902 46.4177C57.3657 46.0366 57.2333 45.5753 57.1973 45.0297H58.6806V45.0257Z" fill="#FFFFFF"/>
<path d="M67.9569 45.0257C68.0652 45.6675 68.3338 46.1128 68.7667 46.3695C69.1997 46.6263 69.7889 46.7506 70.5346 46.7506C71.3163 46.7506 71.8695 46.6182 72.1982 46.3495C72.5269 46.0807 72.6873 45.7317 72.6873 45.2905C72.6873 45.114 72.6672 44.9415 72.6271 44.785C72.5871 44.6246 72.5069 44.4842 72.3866 44.3598C72.2664 44.2355 72.102 44.1272 71.8895 44.0309C71.6771 43.9346 71.3965 43.8584 71.0557 43.7982L69.8811 43.6217C69.36 43.5375 68.903 43.4332 68.5142 43.3008C68.1213 43.1725 67.7925 43 67.5199 42.7954C67.2473 42.5868 67.0429 42.3341 66.9066 42.0292C66.7703 41.7244 66.7022 41.3633 66.7022 40.9341C66.7022 40.5089 66.7943 40.1278 66.9787 39.7949C67.1632 39.462 67.4157 39.1812 67.7444 38.9525C68.0692 38.7199 68.454 38.5434 68.899 38.419C69.344 38.2947 69.825 38.2305 70.3462 38.2305C71.0116 38.2305 71.5648 38.2946 72.0098 38.427C72.4548 38.5594 72.8196 38.7359 73.1042 38.9605C73.3888 39.1852 73.6093 39.4539 73.7617 39.7588C73.914 40.0677 74.0343 40.3926 74.1185 40.7376L72.7154 40.9702C72.6312 40.7215 72.539 40.5009 72.4307 40.3124C72.3225 40.1238 72.1822 39.9674 72.0058 39.843C71.8294 39.7187 71.6129 39.6224 71.3564 39.5582C71.0998 39.494 70.7831 39.462 70.4063 39.462C69.9814 39.462 69.6246 39.5021 69.3399 39.5783C69.0553 39.6545 68.8268 39.7588 68.6544 39.8912C68.4821 40.0195 68.3618 40.168 68.2896 40.3284C68.2175 40.4889 68.1814 40.6573 68.1814 40.8338C68.1814 41.0224 68.2055 41.1909 68.2536 41.3393C68.3017 41.4877 68.3898 41.6201 68.5221 41.7284C68.6504 41.8407 68.8308 41.941 69.0553 42.0212C69.2798 42.1054 69.5724 42.1776 69.9252 42.2338L71.2602 42.4464C72.3385 42.6229 73.1122 42.9318 73.5812 43.373C74.0503 43.8103 74.2828 44.4521 74.2828 45.2945C74.2828 45.6836 74.2066 46.0446 74.0503 46.3695C73.898 46.6945 73.6655 46.9793 73.3568 47.2239C73.0481 47.4686 72.6632 47.6572 72.2022 47.7936C71.7412 47.93 71.2 47.9981 70.5827 47.9981C70.0254 47.9981 69.5083 47.946 69.0272 47.8377C68.5462 47.7294 68.1253 47.5609 67.7565 47.3323C67.3877 47.0996 67.091 46.7947 66.8665 46.4177C66.642 46.0366 66.5097 45.5753 66.4736 45.0297H67.9569V45.0257Z" fill="#FFFFFF"/>
</svg>
