<svg width="122" height="122" viewBox="0 0 122 122" fill="none" xmlns="http://www.w3.org/2000/svg">
<rect width="121.428" height="121.431" fill="white"/>
<path d="M0 77.3835V69.9108H10.8581V66.2824H7.32217V62.6323H3.65462V58.965H0.0388347V55.1942C0.608385 55.1683 1.16499 55.1338 1.72375 55.1208C2.28252 55.1079 2.85638 55.1208 3.51654 55.1208V51.583H0.0215752V36.7628H7.24666V29.4476H11.1515V33.0178H18.4025C18.7132 35.4878 18.4025 37.85 18.5708 40.2855H21.9773V36.8167H25.811V40.5724H22.2837V44.024H29.306V40.484L32.9951 40.292V33.0696H36.6972V29.439H44.248V32.9337H47.7775V29.3742H55.0004V25.9011H51.4774V7.5646H40.6517V14.526H44.0776V11.0572H47.8185V18.4802H44.3451V21.9641H47.8293V25.7911H44.125V22.2726H40.5934V25.7954H36.7425V11.206H29.4376V7.30789H32.9174V3.77866H29.4505V0.0078125H44.1919V3.52626H55.0781V0.0380136H62.6095V3.54352H66.1736V0.0336991H69.8864V3.72473H66.3914V10.8803H73.4763V0.0444855H77.2776C77.3078 0.598895 77.3488 1.15546 77.3639 1.71203C77.379 2.26859 77.3639 2.85105 77.3639 3.51979H80.8157V0.0509569H84.5739V3.7463H81.0703V7.47831H77.3812V14.8539H73.6618V18.4608H69.8605V14.9445H66.3138V18.4802H62.6462V25.8472H59.0283V29.3354H62.6139V32.938H66.1477V29.4433H69.9447V32.9941H73.6726V36.6247H77.1352V33.2076C78.4297 32.9056 79.6356 33.0717 81.0185 33.0825V36.601H88.1185V29.5641H80.8891V22.3028H77.4696C77.4179 23.4418 77.3661 24.5679 77.3121 25.7803H73.5734V22.0569C74.1839 22.0289 74.7449 21.9922 75.2993 21.9792C75.8537 21.9663 76.4341 21.9792 77.1698 21.9792V18.3335H84.5286V14.7223H91.9716V25.8774H88.509V29.2944H92.0665V33.0006H95.7341V36.601H99.201V29.4454H103.084V36.6937H106.709V40.484H102.951V36.9655H99.5527V47.687H102.894V44.1858H106.743V47.7129H117.5V44.2613H110.357V40.415H117.515C117.58 39.1034 117.638 37.9795 117.696 36.7843H121.405V51.5614H117.888V55.1273H121.403V58.9176H114.223V66.1421H121.398V69.8957H117.91V73.4616H121.394V80.9559H117.666V77.4568H103.212V80.8113H106.728V84.4333H110.23V80.9494H114.057V84.4657H117.761V88.2106H121.409V99.3635H110.579V102.886H121.426V106.739H117.91V110.24H121.405V114.031H113.979V106.873H92.1075V110.452H88.4162V121.419H84.5739V114.156H80.9064V110.547H77.3855V114.128H70.0504V117.579H77.269V121.38H66.2189V117.911H62.6484V121.41H58.8147V117.829H55.2162C55.1558 116.55 55.104 115.396 55.0457 114.149H44.1445V106.841H33.1116V99.5318L29.4009 99.3614V88.5364H25.9318V91.988H14.7134V77.4612H11.2184V81.0141H7.5789V84.4916H11.0523V88.3746H7.49045V91.9944H0.0129438V88.2365H7.2143V84.7526H0.0302033V80.9063H7.22725V77.3835H0ZM66.2189 51.5334C66.2598 52.6983 66.2987 53.861 66.3397 55.0281H69.7268V51.5485H66.2189V47.989H62.7174V51.5334H66.2189ZM55.2874 66.1659V73.3904H58.86V69.9281H62.6635V73.4012H66.0959V66.2522H62.588V62.4446H66.0765V55.2244H62.4499V51.542H58.7543V47.8919H55.2162V44.1793H58.9636V47.7129H62.5103V44.0564H69.7829V33.322H66.2879V40.4667H55.2162V36.683H58.7241V29.6482H55.2162V33.2745H51.5206V36.9418H40.6517V47.7021H44.1186V40.484H51.4925V47.9739H44.3214V51.4471H47.8163V55.1985H44.0452V51.6671H40.6517V62.3799H44.1358V58.8917H47.9264V62.408H51.4753V55.233H58.8643V58.9909H55.2291V62.6582H51.6781V66.1745L55.2874 66.1659ZM55.3456 77.4633V95.4546H62.396V92.0419H58.8837V88.2926H62.6699V91.7809H73.554V88.2667H81.0509V95.4633H88.1056V88.3746H84.6322V84.6145H88.4399V88.1071H106.491V84.6685H95.5442V81.0012H88.2932V77.157H91.8076V73.7421H81.1329V77.157H84.6063V81.0853H81.0229V84.5973H77.1503V81.1457H73.6446V84.7289H69.949V88.2754H66.2383V84.4916H69.7807V81.04H66.1541V77.4655H62.6398V84.6167H58.7974V77.4633H55.3456ZM33.1785 40.6393V47.8315H14.6249V44.339H11.1407V47.8186H7.25745V44.3131H3.84015V51.46H7.47535V62.3821H11.0199V51.5312H14.8385V55.0345H18.3249V51.5657H25.7635V55.2934H22.3052V58.8399H25.9081V62.3907H36.6217V58.9499H33.0188V55.2481H29.4138V51.5441H33.2324V55.0281H36.6001V40.6393H33.1785ZM84.7724 62.5201H88.4399V66.2047H92.1291V73.4228H95.5679V69.913H99.3585V73.6515H95.8657V80.7401H99.2549V77.185H102.959V73.4724H106.603V69.9216H110.486V73.4163H113.86V66.2543H106.562V62.7035H103.069V66.1767H99.1708V62.5849H95.5593V55.343H88.4011V58.965H84.7724V62.5201ZM44.1272 66.2651H40.3302V62.7035H36.8784V66.3147H33.3165V69.8871H36.9366V77.0836H40.4187V73.6105H44.1704V77.3878H40.5869V80.9623L36.9906 81.1241V84.4614H44.125V80.7941H47.8487V77.157H51.3329V73.7507L47.7473 73.5803V69.9454H44.1272V66.2651ZM58.9398 106.841H55.3478V113.869L58.9571 114.054V117.527H62.4952V113.946H66.0894V110.441H62.575V102.891H66.0786V99.5383H58.9398V106.841ZM36.969 102.796H47.825V99.2212H51.3739V92.1886H40.5654V99.4477H36.969V102.796ZM92.1636 102.796H102.793V92.2037H92.1636V102.796ZM91.8508 47.9178V40.6609H88.3774V44.2613H84.7551V51.3802H99.1384V47.9286L91.8508 47.9178ZM77.1223 103.21H66.3893V110.148H77.1223V103.21ZM70.0417 70.0058V80.7509H73.554V77.1419H77.0921V70.0058H70.0417ZM80.7855 51.3759V47.8919H77.1892V44.3476H70.0374V51.3759H80.7855ZM32.9304 73.7421H25.8757V77.3727H18.6247V80.766H29.3577V77.157H32.9304V73.7421ZM106.476 58.7256V47.989H103.074V55.302H99.5268V58.7256H106.476ZM59.0348 11.2233V18.2127H62.5513V14.5972H66.0786V11.2233H59.0348ZM55.035 103.193H47.9889V110.163H51.4408V106.601H55.0306L55.035 103.193ZM58.7025 10.8975V3.8218H55.3521V10.8975H58.7025ZM18.2386 70.0381H11.2508V73.4465H18.2386V70.0381ZM55.3456 18.6161V25.5991H58.737V18.6075L55.3456 18.6161ZM77.461 62.408H80.7855V55.3689H77.4675L77.461 62.408ZM25.606 84.8087H18.629V88.1244H25.606V84.8087ZM47.9846 66.3708V69.7792H51.3501V66.3708H47.9846ZM73.3857 62.4339V59.0362H70.0676V62.4274L73.3857 62.4339ZM69.7613 66.1012V62.7035H66.3764V66.1012H69.7613ZM59.0606 73.7593V77.075H62.4154V73.7507L59.0606 73.7593ZM18.6398 66.36V69.762H21.9169V66.3514L18.6398 66.36ZM51.376 88.1589V84.8303H48.0019V88.1589H51.376ZM113.824 55.0496V51.6779H110.521V55.0496H113.824ZM25.5866 73.4509V70.0209H22.3225V73.4509H25.5866ZM11.2551 62.6798V66.0796H14.5494V62.6798H11.2551ZM80.7877 66.3881H77.4739V69.7555H80.7942L80.7877 66.3881ZM29.2261 69.7987V66.3471H25.9836V69.7987H29.2261ZM84.4358 66.0968V62.7035H81.1566V66.1033L84.4358 66.0968ZM22.3031 62.6863V66.0861H25.5952V62.6863H22.3031ZM84.4358 51.6606H81.1674V55.0496H84.4617L84.4358 51.6606ZM110.197 59.0362H106.905V62.3886H110.197V59.0362ZM36.9582 7.20003H40.2827V3.85632H36.9582V7.20003ZM77.105 99.1306V95.8624H73.7546V99.1306H77.105ZM10.8905 77.1268V73.7421H7.59616V77.1203L10.8905 77.1268ZM80.7898 40.6566H77.4718V43.9356H80.7963L80.7898 40.6566ZM110.538 88.0898H113.845V84.8109H110.538V88.0898ZM40.2892 88.5213H36.9668V91.7917H40.2892V88.5213ZM36.5634 80.7811V77.4892H33.3273V80.7855L36.5634 80.7811ZM117.515 91.8025V88.517H114.234V91.8068L117.515 91.8025ZM110.186 99.1608V95.8429H106.875V99.1608H110.186ZM14.543 40.3006V37.0044H11.2745V40.3006H14.543ZM80.7683 102.828V99.5491H77.5063V102.828H80.7683ZM40.2547 36.601V33.3371H36.9863V36.601H40.2547ZM81.1415 106.478H84.4445V103.212H81.1415V106.478ZM84.8198 106.862V110.143H88.1358V106.862H84.8198ZM88.1465 22.2985H84.8349V25.5559H88.1465V22.2985ZM110.18 88.5256H106.862V91.796H110.18V88.5256Z" fill="#0F1A38"/>
<path d="M25.7914 121.431H0.0429688V95.5697C8.59701 95.5374 17.1446 95.5309 25.7914 95.5697V121.431ZM3.83566 99.498V117.541H21.8822V99.498H3.83566Z" fill="#0F1A38"/>
<path d="M121.393 25.799H95.6406V0.0351562H121.393V25.799ZM117.545 21.916V3.85346H99.5498V21.9138L117.545 21.916Z" fill="#0F1A38"/>
<path d="M0.0273438 0H25.7844V25.7703H0.0273438V0ZM3.8265 21.9304H21.9227V3.83988H3.8265V21.9304Z" fill="#0F1A38"/>
<path d="M29.4219 121.377V117.639H32.9147V114.172H29.4478V110.352H33.2124V113.851H36.5952C36.6491 112.696 36.7009 111.601 36.757 110.377H40.5195V114.058H37.0094V117.574H51.5265V121.377H29.4219Z" fill="#0F1A38"/>
<path d="M95.7405 117.892V121.378H91.9629V117.643H95.5139V114.015H102.916V110.348H106.788V113.918H110.456V117.503L114.061 117.682V121.378H110.352C110.294 120.202 110.24 119.074 110.182 117.874H106.849V121.378H102.944V117.892H95.7405ZM106.527 114.224H103.222V117.508H106.521L106.527 114.224Z" fill="#0F1A38"/>
<path d="M33.1609 18.3789V25.7868H29.4609V18.3789H33.1609Z" fill="#0F1A38"/>
<path d="M29.4331 33.1463H22.0742V29.4531H29.4331V33.1463Z" fill="#0F1A38"/>
<path d="M110.359 29.4375H114.079V36.8001H110.359V29.4375Z" fill="#0F1A38"/>
<path d="M121.421 33.1609H117.701V29.4375H121.421V33.1609Z" fill="#0F1A38"/>
<path d="M88.314 11.076H84.6055V7.38281H88.314V11.076Z" fill="#0F1A38"/>
<path d="M121.428 121.401H117.709V117.719H121.428V121.401Z" fill="#0F1A38"/>
<path d="M66.2285 22.0703H69.8961V25.7743H66.2285V22.0703Z" fill="#0F1A38"/>
<path d="M3.68814 29.4375V33.1307H0.0507812V29.4375H3.68814Z" fill="#0F1A38"/>
<path d="M95.6055 99.3059V95.6602H99.3399V99.3059H95.6055Z" fill="#0F1A38"/>
<path d="M18.4351 114.074H7.38281V102.992H18.4351V114.074Z" fill="#0F1A38"/>
<path d="M114.051 18.4559H103.016V7.38281H114.051V18.4559Z" fill="#0F1A38"/>
<path d="M7.35547 18.4355V7.37109H18.4358V18.4355H7.35547Z" fill="#0F1A38"/>
<rect x="43" y="43" width="36" height="36" rx="18" fill="#0F1A38"/>
<path fill-rule="evenodd" clip-rule="evenodd" d="M49.207 54.665L51.2713 67.7604C51.542 69.48 53.0186 70.7468 54.7523 70.7468C56.4842 70.7468 57.9609 69.4817 58.2315 67.7621L59.6345 58.8821C59.6928 58.512 60.0097 58.2401 60.3831 58.2401C60.7549 58.2401 61.0735 58.512 61.1318 58.8821L62.5348 67.7604C62.8072 69.4817 64.2838 70.7485 66.0175 70.7485C67.7494 70.7485 69.2243 69.4851 69.4984 67.7673L71.0488 58.0679C71.1327 57.5378 71.5884 57.1488 72.1212 57.1488H73.6715V54.3672H72.1212C70.2282 54.3672 68.6162 55.7476 68.3164 57.6256L66.7661 67.3249C66.7061 67.695 66.3892 67.967 66.0157 67.967C65.6423 67.967 65.3237 67.6933 65.2654 67.3232L63.8624 58.4449C63.59 56.7253 62.1151 55.4585 60.3814 55.4585C58.6478 55.4585 57.1728 56.7253 56.9005 58.4449L55.4975 67.3249C55.4392 67.695 55.1223 67.967 54.7488 67.967C54.3771 67.967 54.0585 67.695 54.0002 67.3249L52.0079 54.665H49.207Z" fill="white"/>
</svg>
